<svg xmlns="http://www.w3.org/2000/svg" viewBox="0 0 99.29 22.28">
    <path fill="#449be0" d="M50.12 16.61h-2.31l-2-3.71a1.69 1.69 0 00-.69-.75 2.26 2.26 0 00-1-.21h-1.65v4.67h-2.1V5h5.15a4.51 4.51 0 013 .89 3.16 3.16 0 011 2.54 3.23 3.23 0 01-.75 2.2 3.56 3.56 0 01-2.12 1.13 2.41 2.41 0 011.48 1.31zM47 9.86a1.69 1.69 0 00.56-1.4A1.63 1.63 0 0047 7.07a2.86 2.86 0 00-1.76-.44h-2.79v3.68h2.77A2.79 2.79 0 0047 9.86z"/>
    <path fill="#0473e7" d="M52.83 5h5.08a4.19 4.19 0 012.9.93 3.37 3.37 0 011 2.62 3.37 3.37 0 01-1 2.62 4.15 4.15 0 01-2.9.94H55v4.52h-2.17zm4.82 5.48q2.19 0 2.19-1.92a1.8 1.8 0 00-.55-1.44 2.47 2.47 0 00-1.64-.47H55v3.83zM66.9 16a4.84 4.84 0 01-1.9-2 7 7 0 01-.68-3.16A7 7 0 0165 7.63a4.7 4.7 0 011.92-2.07 6.38 6.38 0 015.89 0 4.81 4.81 0 011.89 2.07 7.11 7.11 0 01.66 3.16 7 7 0 01-.67 3.21 4.84 4.84 0 01-1.92 2 6.34 6.34 0 01-5.87 0zm5.44-2a4.88 4.88 0 00.9-3.16 4.86 4.86 0 00-.9-3.16 3.4 3.4 0 00-5 0 4.86 4.86 0 00-.9 3.16 4.88 4.88 0 00.9 3.16 3.38 3.38 0 005 0zM88.25 16.61h-2.31L84 12.9a1.77 1.77 0 00-.7-.75 2.26 2.26 0 00-1-.21h-1.7v4.67h-2.09V5h5.14a4.51 4.51 0 013 .89 3.16 3.16 0 011 2.54 3.23 3.23 0 01-.75 2.2 3.56 3.56 0 01-2.12 1.13 2.38 2.38 0 011.48 1.31zm-3.13-6.75a1.72 1.72 0 00.56-1.4 1.66 1.66 0 00-.56-1.39 2.9 2.9 0 00-1.77-.44h-2.77v3.68h2.77a2.82 2.82 0 001.77-.45zM93.37 6.73h-3.79V5h9.71v1.73H95.5v9.88h-2.13zM7.58 13.16h8.15a2 2 0 000-4H2a2 2 0 000 4zM37 9.19h-6.59v4H37"/>
    <path fill="#0473e7" d="M7.32 13.85h4.15v3A1.58 1.58 0 0013 18.39h11.12a1.57 1.57 0 001.56-1.57V5.74a1.56 1.56 0 00-1.56-1.56H13a1.57 1.57 0 00-1.57 1.56v2.83H7.38v-3.1A5.49 5.49 0 0112.86 0h11.33a5.49 5.49 0 015.48 5.47v11.34a5.49 5.49 0 01-5.48 5.47H12.86a5.49 5.49 0 01-5.48-5.47v-3"/>
</svg>
